<svg version="1" xmlns="http://www.w3.org/2000/svg" width="266.667" height="266.667" viewBox="0 0 200.000000 200.000000"><path d="M0 7.4c0 6.9.2 7.5 2.3 7.9l2.2.4-2.2.2c-2 .1-2.3.6-2.3 4.6C0 24.7.2 25 2.7 25c1.4 0 5.4.5 8.8 1.1l6.2 1.1.5 13.6c.6 17.6-.2 26.7-2.2 26.6-.8 0-4.8-.4-8.7-.7L0 66v7.8l8.8.8 8.7.9.3 16.5c.4 19.5-.2 25.7-2.4 24-.7-.7-1.1-1.6-.8-2.2.3-.5-.6-.6-2.2-.2-1.9.5-2.5.4-2-.5.4-.6.3-1.1-.3-1.1-.5 0-1.2-.8-1.5-1.8-.3-.9-.3 0-.1 2.2l.3 3.8-4.4-.5-4.4-.5v4.4c0 3.6.3 4.3 2.2 4.7l2.3.4-2.2.2-2.3.1v39.1l5.3-3.9c7.3-5.4 14-9.2 16.3-9.2 1.1 0 4.4-1.6 7.4-3.6s9.1-5 13.5-6.6c4.4-1.6 8.9-3.8 10-4.7 2.4-2.2 10.9-4.4 13.6-3.6 1.6.5 2.6-.7 5.9-7.7 3.3-7.1 4.7-8.9 4.1-5.5-.1.5.3.6.9.2 1.2-.7 5 2 12.5 9 5.5 5.2 9.9 7.5 14.3 7.5 1.5 0 4.9 1.4 7.5 3 2.6 1.7 5.2 3 5.6 3 .5 0 4.3-3.6 8.4-8l7.5-8.1 1.2 6.8c.7 3.8 1.6 7.5 2.1 8.3.4.9 3 2.2 5.8 2.9 2.7.7 8.3 2.8 12.3 4.8 4 1.9 9.3 4.1 11.8 4.9 6.2 1.9 8.2 3.4 21.9 16.3l12.1 11.3V0H0v7.4zm10.3 9.3c-.7.2-2.1.2-3 0-1-.3-.4-.5 1.2-.5 1.7 0 2.4.2 1.8.5zm104 12.2c5.5.9 7.8 3.3 7 7.3-.4 2-.1 2.9 1.1 3.4.9.3 1.6 1.2 1.6 1.9s.6 1.8 1.4 2.5c3 2.4.5 3.7-9.6 5-7.8 1.1-11 1.1-14.4.2-2.4-.7-5.3-1.2-6.3-1.2-2.4 0-3.4-2.5-1.6-4 1.1-.9 1.2-1.7.4-3.1-.8-1.5-.6-1.9.7-1.9 1.1 0 1.4-.4.7-1.3-2-2.6-.8-5 3.7-7.3 4.8-2.5 7.6-2.8 15.3-1.5zM35.2 40.4c.9.9 2.6 1.6 3.7 1.6s2.2.9 2.6 2c.3 1.1 1.3 2 2.1 2s1.4.6 1.4 1.4c0 .7.7 2.7 1.5 4.2.9 1.7 1.5 5 1.4 8-.2 2.7.1 5.6.5 6.2.4.7.2 1.2-.4 1.2-.6 0-.8.4-.5 1 .3.5-.2 1-1.2 1.1-1.6 0-1.6.1.2.9 1.9.9-11.4.4-14.2-.5-1.5-.5-1.6-6.7-.6-26 .5-9 .9-11.7 1.3-8.9.3 2.3 1.3 4.9 2.2 5.8zm74.7 21.8c1 2.9 3.4 17.8 2.9 18.3-.2.3-1.7.1-3.2-.3-2.7-.7-2.8-1.2-3.3-7.2-.7-10.5 1.4-16.8 3.6-10.8zm23.6 10.4c-1.2 6.7-5 10.4-8.4 8.2-2.2-1.3-5.1-6-5.1-8 0-1.6 5.6-3.5 10.9-3.7 3.3-.1 3.3-.1 2.6 3.5zm-43 1.5c2.8 3 2.8 3.2 1 4.5-1 .8-2.2 1.4-2.5 1.4-1.5 0-4.4-4.2-4.5-6.5-.1-3.5 2.3-3.2 6 .6zM102 78c0 .5-.4 1-1 1-.5 0-1-.5-1-1 0-.6.5-1 1-1 .6 0 1 .4 1 1zm15.8.9c.3.8-.1 1.2-.9.9-.7-.2-1.5-1-1.7-1.7-.3-.8.1-1.2.9-.9.7.2 1.5 1 1.7 1.7zm-76.6.1c1.2 0 1.6.5 1.2 1.7-.9 2.8-2.7 6.7-3.8 8.2-.6.7-1.1 2.1-1.1 3 0 1-1 1.7-2.7 1.9-3 .4-3.5 1.1-1.6 3 .8.8.8 1.5 0 2.4-.5.7-1.2 2.6-1.5 4.3-.2 1.6-.5-3.1-.6-10.6 0-7.5.2-13.9.7-14.3.4-.4 2.3-.5 4.2-.2 1.9.3 4.3.6 5.2.6zm-25.9 46.7c-1.3.2-3.3.2-4.5 0-1.3-.2-.3-.4 2.2-.4s3.5.2 2.3.4z"/><path d="M39.8 57.6c-.5.4-.8 1.9-.8 3.3 0 1.8.3 2.2 1.1 1.4.6-.6.9-2.1.7-3.3-.1-1.2-.6-1.8-1-1.4zM3.4 107.5c-.9 2.2.1 2.9 1.5 1.1.8-1 .9-1.6.1-2.1-.5-.3-1.3.1-1.6 1zM117 144.1c0 .6-.8.8-1.8.5-1.8-.6-4.1 2.3-11.1 14.2-2.9 4.9-2.9 5.2-1 5.2 1.1 0 3.6 1.2 5.5 2.7l3.6 2.7-.7 6.9c-.4 3.8-.4 10.7 0 15.3l.7 8.4H143v-2.8c0-3.5-6.1-18.2-10.5-25.4-1.9-3.1-3.5-6.1-3.5-6.7 0-1.2 2-1.6 2-.4.1.5 1.2 2.1 2.6 3.8 2.4 2.9 2.4 2.8-.6-4.5-4-9.8-7.3-15.2-11.1-18.4-3.2-2.8-4.9-3.3-4.9-1.5zM4.8 181.7c-6.4.5-6.2 2.4.2 2.2 5-.2 6.4.4 17.3 7.5 3.3 2.2 3.6.8.5-2.1-3.4-3-11.5-8.3-12.5-8.1-.4.1-2.9.3-5.5.5zM31.7 196.7c-.4.6 0 1.6.8 2.3 2.1 1.7 2.8.8 1.1-1.5-.8-1.1-1.5-1.4-1.9-.8z"/></svg>